<svg width="418" height="463" viewBox="0 0 418 463" fill="none" xmlns="http://www.w3.org/2000/svg">
<mask id="mask0" mask-type="alpha" maskUnits="userSpaceOnUse" x="60" y="66" width="299" height="331">
<ellipse rx="156.921" ry="157.514" transform="matrix(0.765097 -0.643915 0.561914 0.827196 209.431 231.567)" fill="#C4C4C4"/>
</mask>
<g mask="url(#mask0)">
<path d="M-92.77 328.376L354.453 -48.0123" stroke="#9CDF67" stroke-width="2"/>
<path d="M-5.02979 454.067L442.193 77.6789" stroke="#9CDF67" stroke-width="2"/>
<path d="M-85.9614 338.398L361.262 -37.9896" stroke="#9CDF67" stroke-width="2"/>
<path d="M1.77832 464.09L449.001 87.7016" stroke="#9CDF67" stroke-width="2"/>
<path d="M-76.8838 351.762L370.339 -24.626" stroke="#9CDF67" stroke-width="2"/>
<path d="M10.8564 477.453L458.08 101.065" stroke="#9CDF67" stroke-width="2"/>
<path d="M-68.9414 363.455L378.282 -12.933" stroke="#9CDF67" stroke-width="2"/>
<path d="M18.7993 489.146L466.022 112.758" stroke="#9CDF67" stroke-width="2"/>
<path d="M-59.4971 373.885L387.726 -2.50291" stroke="#9CDF67" stroke-width="2"/>
<path d="M28.2432 499.576L475.466 123.188" stroke="#9CDF67" stroke-width="2"/>
<path d="M-53.0552 386.841L394.168 10.4533" stroke="#9CDF67" stroke-width="2"/>
<path d="M34.686 512.532L481.909 136.144" stroke="#9CDF67" stroke-width="2"/>
<path d="M-43.6108 397.272L403.612 20.8837" stroke="#9CDF67" stroke-width="2"/>
<path d="M44.1304 522.963L491.354 146.575" stroke="#9CDF67" stroke-width="2"/>
<path d="M-37.1685 410.228L410.055 33.8397" stroke="#9CDF67" stroke-width="2"/>
<path d="M50.5718 535.919L497.795 159.531" stroke="#9CDF67" stroke-width="2"/>
<path d="M-26.5894 422.329L420.634 45.9406" stroke="#9CDF67" stroke-width="2"/>
<path d="M61.1514 548.019L508.375 171.631" stroke="#9CDF67" stroke-width="2"/>
<path d="M-99.2119 315.42L346.511 -59.7053" stroke="#9CDF67" stroke-width="2"/>
<path d="M-11.4722 441.11L434.25 65.9853" stroke="#9CDF67" stroke-width="2"/>
<path d="M-106.021 305.397L339.702 -69.7282" stroke="#9CDF67" stroke-width="2"/>
<path d="M-18.2803 431.088L427.442 55.9631" stroke="#9CDF67" stroke-width="2"/>
</g>
</svg>
