<svg width="205" height="951" viewBox="0 0 205 951" fill="none" xmlns="http://www.w3.org/2000/svg">
<mask id="mask0" mask-type="alpha" maskUnits="userSpaceOnUse" x="-347" y="136" width="460" height="679">
<ellipse rx="278.037" ry="300.49" transform="matrix(0.664847 -0.746979 0.453509 0.891252 -116.873 475.5)" fill="#C4C4C4"/>
</mask>
<g mask="url(#mask0)">
<path d="M-582.162 674.483L106.413 -99.1555" stroke="white" stroke-width="6"/>
<path d="M-447.07 932.832L241.504 159.194" stroke="white" stroke-width="6"/>
<path d="M-571.679 695.083L116.896 -78.5547" stroke="white" stroke-width="6"/>
<path d="M-436.588 953.432L251.986 179.794" stroke="white" stroke-width="6"/>
<path d="M-557.702 722.552L130.872 -51.0866" stroke="white" stroke-width="6"/>
<path d="M-422.611 980.9L265.964 207.262" stroke="white" stroke-width="6"/>
<path d="M-545.473 746.586L143.102 -27.0525" stroke="white" stroke-width="6"/>
<path d="M-410.381 1004.93L278.193 231.297" stroke="white" stroke-width="6"/>
<path d="M-530.932 768.024L157.643 -5.61398" stroke="white" stroke-width="6"/>
<path d="M-395.841 1026.37L292.734 252.735" stroke="white" stroke-width="6"/>
<path d="M-521.013 794.655L167.561 21.0166" stroke="white" stroke-width="6"/>
<path d="M-385.922 1053L302.653 279.365" stroke="white" stroke-width="6"/>
<path d="M-506.472 816.093L182.102 42.4551" stroke="white" stroke-width="6"/>
<path d="M-371.38 1074.44L317.194 300.803" stroke="white" stroke-width="6"/>
<path d="M-496.553 842.724L192.021 69.0855" stroke="white" stroke-width="6"/>
<path d="M-361.462 1101.07L327.112 327.434" stroke="white" stroke-width="6"/>
<path d="M-480.266 867.596L208.309 93.9576" stroke="white" stroke-width="6"/>
<path d="M-345.174 1125.94L343.401 352.306" stroke="white" stroke-width="6"/>
<path d="M-592.08 647.853L94.1838 -123.189" stroke="white" stroke-width="6"/>
<path d="M-456.99 906.201L229.274 135.159" stroke="white" stroke-width="6"/>
<path d="M-602.563 627.251L83.7009 -143.791" stroke="white" stroke-width="6"/>
<path d="M-467.472 885.6L218.792 114.558" stroke="white" stroke-width="6"/>
</g>
</svg>
